<?xml version="1.0" encoding="utf-8"?>
<svg width="36px" height="36px" viewBox="0 0 36 36" version="1.1" xmlns:xlink="http://www.w3.org/1999/xlink" xmlns="http://www.w3.org/2000/svg">
  <defs>
    <path d="M36 0L36 0L36 36L0 36L0 0L36 0Z" id="path_1" />
    <clipPath id="clip_1">
      <use xlink:href="#path_1" clip-rule="evenodd" fill-rule="evenodd" />
    </clipPath>
  </defs>
  <g id="Asalto">
    <g id="Asalto" clip-path="url(#clip_1)">
      <path d="M36 0L36 0L36 36L0 36L0 0L36 0Z" id="Asalto" fill="none" stroke="none" />
      <path d="M18 3C12.195 3 7.5 7.695 7.5 13.5C7.5 21.375 18 33 18 33C18 33 28.5 21.375 28.5 13.5C28.5 7.695 23.805 3 18 3L18 3Z" id="Shape" fill="#F97316" stroke="none" />
      <path d="M16.0289 10.5L23.9999 10.5L23.9999 12.5L23.5018 12.5L23.5018 13L20.5126 13C20.2375 13 20.0144 13.2239 20.0144 13.5L20.0144 14C20.0144 14.5523 19.5683 15 19.0181 15L17.3342 15C17.1449 15 16.9705 15.11 16.8858 15.28L15.6652 17.725C15.5806 17.895 15.4112 18 15.2219 18L13.538 18C13.538 18 12.0434 18 14.0362 15C14.0362 15 15.5307 13 13.538 13L13.538 10.5L14.0362 10.5L14.2853 10L15.7798 10L16.0289 10.5M19.5162 14L19.5162 13.5C19.5162 13.2239 19.2932 13 19.018 13L18.5199 13C18.5199 13 18.0217 13.5 18.5199 14C17.9696 14 17.5235 13.5523 17.5235 13C17.2483 13 17.0253 13.2239 17.0253 13.5L17.0253 14C17.0253 14.2762 17.2483 14.5 17.5235 14.5L19.018 14.5C19.2932 14.5 19.5162 14.2762 19.5162 14L19.5162 14Z" id="Shape" fill="#FFFFFF" fill-rule="evenodd" stroke="none" />
    </g>
  </g>
</svg>