<?xml version="1.0" encoding="utf-8"?>
<svg width="36px" height="36px" viewBox="0 0 36 36" version="1.1" xmlns:xlink="http://www.w3.org/1999/xlink" xmlns="http://www.w3.org/2000/svg">
  <defs>
    <path d="M36 0L36 0L36 36L0 36L0 0L36 0Z" id="path_1" />
    <path d="M14 0L14 0L14 14L0 14L0 0L14 0Z" id="path_2" />
    <clipPath id="clip_1">
      <use xlink:href="#path_1" clip-rule="evenodd" fill-rule="evenodd" />
    </clipPath>
    <clipPath id="clip_2">
      <use xlink:href="#path_2" clip-rule="evenodd" fill-rule="evenodd" />
    </clipPath>
  </defs>
  <g id="Infraestructura">
    <g id="Infraestructura" clip-path="url(#clip_1)">
      <path d="M36 0L36 0L36 36L0 36L0 0L36 0Z" id="Infraestructura" fill="none" stroke="none" />
      <path d="M18 3C12.195 3 7.5 7.695 7.5 13.5C7.5 21.375 18 33 18 33C18 33 28.5 21.375 28.5 13.5C28.5 7.695 23.805 3 18 3L18 3Z" id="Shape" fill="#2563EB" stroke="none" />
      <g id="Frame 3" clip-path="url(#clip_2)" transform="translate(11 6)">
        <path d="M14 0L14 0L14 14L0 14L0 0L14 0Z" id="Frame-3" fill="none" stroke="none" />
        <path d="M1.75 9.33333L7 9.33333L7 12.25L1.75 12.25L1.75 9.33333M1.16667 5.83333L4.66667 5.83333L4.66667 8.75L1.16667 8.75L1.16667 5.83333M5.25 5.83333L8.75 5.83333L8.75 8.75L5.25 8.75L5.25 5.83333M9.33333 5.83333L12.8333 5.83333L12.8333 8.75L9.33333 8.75L9.33333 5.83333M7.58333 9.33333L12.25 9.33333L12.25 12.25L7.58333 12.25L7.58333 9.33333M1.75 2.33333L6.41667 2.33333L6.41667 5.25L1.75 5.25L1.75 2.33333M7 2.33333L12.25 2.33333L12.25 5.25L7 5.25L7 2.33333L7 2.33333Z" id="Shape" fill="#FFFFFF" fill-rule="evenodd" stroke="none" />
      </g>
    </g>
  </g>
</svg>