<?xml version="1.0" encoding="utf-8"?>
<svg width="36px" height="36px" viewBox="0 0 36 36" version="1.1" xmlns:xlink="http://www.w3.org/1999/xlink" xmlns="http://www.w3.org/2000/svg">
  <defs>
    <path d="M36 0L36 0L36 36L0 36L0 0L36 0Z" id="path_1" />
    <path d="M14 0L14 0L14 14L0 14L0 0L14 0Z" id="path_2" />
    <clipPath id="clip_1">
      <use xlink:href="#path_1" clip-rule="evenodd" fill-rule="evenodd" />
    </clipPath>
    <clipPath id="clip_2">
      <use xlink:href="#path_2" clip-rule="evenodd" fill-rule="evenodd" />
    </clipPath>
  </defs>
  <g id="Vandalismo">
    <g id="Vandalismo" clip-path="url(#clip_1)">
      <path d="M36 0L36 0L36 36L0 36L0 0L36 0Z" id="Vandalismo" fill="none" stroke="none" />
      <path d="M18 3C12.195 3 7.5 7.695 7.5 13.5C7.5 21.375 18 33 18 33C18 33 28.5 21.375 28.5 13.5C28.5 7.695 23.805 3 18 3L18 3Z" id="Shape" fill="#9333EA" stroke="none" />
      <g id="Frame 2" clip-path="url(#clip_2)" transform="translate(10 7)">
        <path d="M14 0L14 0L14 14L0 14L0 0L14 0Z" id="Frame-2" fill="none" stroke="none" />
        <path d="M5.83333 2.33333L7 2.33333L7 3.5L5.83333 3.5L5.83333 2.33333M4.08333 1.75L5.25 1.75L5.25 2.91667L4.08333 2.91667L4.08333 1.75M4.08333 3.5L5.25 3.5L5.25 4.66667L4.08333 4.66667L4.08333 3.5M3.5 4.66667L3.5 5.83333L2.33333 5.83333L2.33333 4.66667L3.5 4.66667M3.5 2.91667L3.5 4.08333L2.33333 4.08333L2.33333 2.91667L3.5 2.91667M3.5 1.16667L3.5 2.33333L2.33333 2.33333L2.33333 1.16667L3.5 1.16667M7.58333 12.8333C6.939 12.8333 6.41667 12.311 6.41667 11.6667L6.41667 5.83333C6.41667 5.189 6.939 4.66667 7.58333 4.66667L7.58333 4.08333L8.16667 4.08333L8.16667 2.33333L9.91667 2.33333L9.91667 4.08333L10.5 4.08333L10.5 4.66667C11.1443 4.66667 11.6667 5.189 11.6667 5.83333L11.6667 11.6667C11.6667 12.311 11.1443 12.8333 10.5 12.8333L7.58333 12.8333M7.58333 5.83333L7.58333 11.6667L10.5 11.6667L10.5 5.83333L7.58333 5.83333L7.58333 5.83333Z" id="Shape" fill="#FFFFFF" fill-rule="evenodd" stroke="none" />
      </g>
    </g>
  </g>
</svg>